<svg width="55" height="41" viewBox="0 0 55 41" fill="none" xmlns="http://www.w3.org/2000/svg">
<path id="Vector" d="M17.0144 33.232L5.54572 21.8204C5.24582 21.5183 4.88865 21.2785 4.49491 21.1149C4.10117 20.9512 3.6787 20.8669 3.25199 20.8669C2.82527 20.8669 2.4028 20.9512 2.00906 21.1149C1.61532 21.2785 1.25815 21.5183 0.958254 21.8204C0.654695 22.1188 0.413685 22.4742 0.249193 22.866C0.0847011 23.2577 0 23.6781 0 24.1027C0 24.5273 0.0847011 24.9477 0.249193 25.3394C0.413685 25.7312 0.654695 26.0866 0.958254 26.385L14.6879 40.0463C15.9658 41.3179 18.0302 41.3179 19.3081 40.0463L54.0417 5.51812C54.3453 5.21971 54.5863 4.86432 54.7508 4.47254C54.9153 4.08076 55 3.66039 55 3.2358C55 2.81121 54.9153 2.39084 54.7508 1.99906C54.5863 1.60728 54.3453 1.25189 54.0417 0.953485C53.7418 0.651437 53.3847 0.411625 52.9909 0.247952C52.5972 0.0842788 52.1747 0 51.748 0C51.3213 0 50.8988 0.0842788 50.5051 0.247952C50.1114 0.411625 49.7542 0.651437 49.4543 0.953485L17.0144 33.232Z" fill="#683B2B"/>
</svg>
