<svg width="36" height="35" viewBox="0 0 36 35" fill="none" xmlns="http://www.w3.org/2000/svg">
<g id="Vector">
<path id="Vector_2" d="M35.7962 9.45765C35.6925 9.31061 35.555 9.1906 35.3951 9.10771C35.2352 9.02483 35.0578 8.98151 34.8776 8.98139H10.8816L9.06516 2.72817C8.35284 0.265819 6.66021 0 5.96598 0H1.12278C0.502014 0 0 0.501725 0 1.12084C0 1.73995 0.50258 2.24164 1.12275 2.24164H5.96538C6.11858 2.24164 6.58611 2.24164 6.90499 3.3416L13.1536 26.2669C13.2893 26.7506 13.7308 27.0846 14.2345 27.0846H29.4973C29.9711 27.0846 30.3939 26.7883 30.5539 26.3431L35.9336 10.4814C36.0574 10.1377 36.006 9.75507 35.7963 9.45765H35.7962ZM28.7072 24.8436H15.0867L11.5127 11.2236H33.2813L28.7072 24.8436ZM26.4804 29.3563C24.9189 29.3563 23.6537 30.6194 23.6537 32.1782C23.6537 33.7369 24.9189 35 26.4804 35C28.0418 35 29.307 33.7369 29.307 32.1782C29.307 30.6194 28.0418 29.3563 26.4804 29.3563ZM16.3044 29.3563C14.743 29.3563 13.4777 30.6194 13.4777 32.1782C13.4777 33.7369 14.743 35 16.3044 35C17.8659 35 19.1311 33.7369 19.1311 32.1782C19.1311 30.6194 17.8659 29.3563 16.3044 29.3563Z" fill="#683B2B"/>
</g>
</svg>
